<svg width="65" height="65" viewBox="0 0 65 65" fill="none" xmlns="http://www.w3.org/2000/svg">
<path d="M44.523 10.7542L42.0924 20.369C37.7324 18.9003 29.4721 19.3687 28.7752 19.4126C28.7703 19.4126 28.763 19.4126 28.7581 19.4126C28.7385 19.4126 28.7288 19.4126 28.7288 19.4126C30.575 18.5612 36.1429 16.9876 36.5733 16.8656C36.5758 16.8656 36.5782 16.8656 36.5831 16.8656C36.5953 16.8632 36.6002 16.8607 36.6002 16.8607C27.5501 17.7146 22.7549 20.369 22.7549 20.369L20.3242 10.7542L24.8725 14.2625L26.8312 12.3083L28.4035 13.877L31.8074 9.30996L32.4261 8.48047L33.0447 9.30996L36.4486 13.877L38.0209 12.3083L39.9796 14.2625L44.5255 10.7542H44.523Z" fill="#ED9E15"/>
<path fill-rule="evenodd" clip-rule="evenodd" d="M32.4238 52.0004C32.4238 52.0004 24.3738 45.9866 18.5687 43.4445C12.7635 40.9048 9.3205 44.1178 9.3205 44.1178C15.2479 41.1756 19.5297 43.5909 20.031 49.7974C20.031 49.7974 17.6346 45.5377 14.1891 44.2691C14.1891 44.2691 17.3338 46.4721 19.2069 50.0609C19.2069 50.0609 11.0444 43.3371 2.17041 50.622C2.17041 50.622 2.76951 44.2715 7.97558 40.9097C13.1817 37.5478 18.0478 39.1165 21.4566 42.8516C21.4566 42.8516 19.2852 38.2943 13.9299 38.1065C13.9299 38.1065 14.754 34.93 18.1994 35.8278C21.6449 36.7232 25.0903 45.5792 25.0903 45.5792C25.0903 45.5792 24.567 43.0761 23.9679 41.9173C23.9679 41.9173 27.9562 45.0864 32.4312 45.9476C36.9061 45.0864 40.8944 41.9173 40.8944 41.9173C40.2953 43.0761 39.7695 45.5792 39.7695 45.5792C39.7695 45.5792 43.215 36.7256 46.6604 35.8278C50.1059 34.93 50.9275 38.1065 50.9275 38.1065C45.5723 38.2943 43.4008 42.8516 43.4008 42.8516C46.8071 39.1165 51.6758 37.5478 56.8818 40.9097C62.0855 44.2715 62.6846 50.622 62.6846 50.622C53.8105 43.3371 45.6481 50.0609 45.6481 50.0609C47.5212 46.4746 50.6658 44.2691 50.6658 44.2691C47.2204 45.5402 44.824 49.7974 44.824 49.7974C45.3253 43.5909 49.6046 41.178 55.5345 44.1178C55.5345 44.1178 52.089 40.9048 46.2863 43.4445C40.4811 45.9842 32.4312 52.0004 32.4312 52.0004H32.4238Z" fill="#ED9E15"/>
<path fill-rule="evenodd" clip-rule="evenodd" d="M32.4238 0.1875C14.5388 0.1875 0.0380859 14.6547 0.0380859 32.4985C0.0380859 36.4532 0.749672 40.2396 2.05302 43.7405C2.85509 42.384 3.93347 41.0105 5.37865 39.8224C4.74531 37.4876 4.40786 35.0333 4.40786 32.4985C4.40786 17.0627 16.9523 4.54719 32.4238 4.54719C47.8953 4.54719 60.4397 17.0627 60.4397 32.4985C60.4397 35.0333 60.1023 37.4876 59.469 39.8224C60.9141 41.0105 61.9925 42.384 62.7946 43.7405C64.0979 40.2396 64.8095 36.4508 64.8095 32.4985C64.8095 14.6547 50.3088 0.1875 32.4238 0.1875ZM32.4238 60.4498C23.4397 60.4498 15.446 56.2316 10.3182 49.6713C8.93902 49.7616 7.43516 50.1446 5.87016 50.9985C11.7242 59.3495 21.4346 64.8095 32.4238 64.8095C43.413 64.8095 53.1234 59.3495 58.9775 50.9985C57.4125 50.1446 55.9086 49.7616 54.5294 49.6713C49.4016 56.2316 41.4054 60.4498 32.4238 60.4498Z" fill="#ED9E15"/>
<path d="M30.8589 37.7678C27.1322 36.5187 23.8433 31.8711 23.8433 31.8711C25.4938 36.5065 28.6141 38.3826 30.6021 39.1267C31.7783 39.5683 33.067 39.5683 34.2432 39.1267C36.2312 38.3801 39.3514 36.504 41.002 31.8711C41.002 31.8711 37.7155 36.5187 33.9864 37.7678C32.9741 38.1069 31.8712 38.1069 30.8564 37.7678H30.8589Z" fill="#ED9E15"/>
<path d="M14.8201 21.6309C15.6784 24.4926 16.7983 27.3275 18.3584 29.8843L15.1453 31.2554C14.3604 28.3668 13.0937 25.5978 11.6069 23.002L14.8201 21.6309Z" fill="#ED9E15"/>
<path d="M19.7276 31.5301L19.7961 31.3568L21.0408 30.825C20.652 29.9882 19.9184 29.9418 19.1237 30.2175C17.9108 30.6371 15.2992 31.6911 14.2501 32.3278C13.6486 32.6938 13.3087 33.311 13.651 33.9795L15.2552 33.2939L15.688 34.3015C16.3311 34.1161 17.1454 34.0356 18.126 34.2186L17.3459 32.401L17.6663 32.2644L18.5441 34.3113C18.5563 34.3162 18.5735 34.3186 18.5857 34.3235C19.8132 34.6431 20.9772 35.6214 22.0165 36.8681L19.7276 31.5276V31.5301Z" fill="#ED9E15"/>
<path d="M14.9228 21.2095L11.2279 22.7855L10.3867 20.8216L11.8197 19.1406L14.0816 19.2455L14.9228 21.2095Z" fill="#ED9E15"/>
<path d="M50.0301 21.6309C49.1718 24.4926 48.0518 27.3275 46.4917 29.8843L49.7048 31.2554C50.4898 28.3668 51.7565 25.5978 53.2432 23.002L50.0301 21.6309Z" fill="#ED9E15"/>
<path d="M50.5974 32.3301C49.5508 31.6933 46.9367 30.6394 45.7239 30.2198C44.9291 29.9465 44.1931 29.9929 43.8067 30.8273L45.0514 31.3591L45.1199 31.5323L42.8311 36.8703C43.8703 35.6261 45.0318 34.6478 46.2594 34.3282C46.2716 34.3233 46.2887 34.3209 46.301 34.316L47.1788 32.2691L47.4992 32.4057L46.7191 34.2233C47.7021 34.0403 48.5115 34.1184 49.1571 34.3062L49.5899 33.2986L51.194 33.9842C51.5388 33.3133 51.194 32.696 50.5949 32.3325L50.5974 32.3301Z" fill="#ED9E15"/>
<path d="M49.9248 21.2095L53.6197 22.7855L54.4633 20.8216L53.0304 19.1406L50.7684 19.2455L49.9248 21.2095Z" fill="#ED9E15"/>
</svg>
