<svg width="51" height="51" viewBox="0 0 51 51" fill="none" xmlns="http://www.w3.org/2000/svg">
<path d="M25.2331 50.596C39.169 50.596 50.4663 39.2697 50.4663 25.298C50.4663 11.3263 39.169 0 25.2331 0C11.2973 0 0 11.3263 0 25.298C0 39.2697 11.2973 50.596 25.2331 50.596Z" fill="white"/>
<path d="M25.2331 0C11.277 0 0 11.3268 0 25.298C0 36.021 6.64577 45.1825 16.0329 48.8678C15.8045 46.869 15.6175 43.7874 16.116 41.6012C16.5729 39.6231 19.065 29.025 19.065 29.025C19.065 29.025 18.3174 27.5051 18.3174 25.2772C18.3174 21.7584 20.3527 19.1349 22.8864 19.1349C25.0462 19.1349 26.0846 20.7589 26.0846 22.6953C26.0846 24.8608 24.7139 28.1089 23.9871 31.128C23.3848 33.6474 25.2539 35.7087 27.7253 35.7087C32.2112 35.7087 35.6587 30.9614 35.6587 24.132C35.6587 18.073 31.3182 13.8462 25.1085 13.8462C17.9228 13.8462 13.7069 19.239 13.7069 24.8191C13.7069 26.9845 14.5376 29.3165 15.576 30.5866C15.7837 30.8365 15.8045 31.0655 15.7422 31.3154C15.5552 32.1066 15.1191 33.8348 15.036 34.1888C14.9322 34.6468 14.6622 34.7509 14.1846 34.5219C11.0694 33.0228 9.11716 28.4004 9.11716 24.6942C9.11716 16.7196 14.8907 9.39045 25.7939 9.39045C34.5372 9.39045 41.3491 15.6369 41.3491 24.0071C41.3491 32.7313 35.8664 39.7481 28.2653 39.7481C25.7108 39.7481 23.3017 38.4155 22.4918 36.8331C22.4918 36.8331 21.2249 41.6636 20.9134 42.8505C20.3527 45.0575 18.8158 47.806 17.7774 49.4925C20.145 50.2212 22.6371 50.6168 25.2539 50.6168C39.1893 50.6168 50.487 39.29 50.487 25.3188C50.4663 11.3268 39.1685 0 25.2331 0Z" fill="#CCCCCC"/>
</svg>
